Coordinates
version=1
nRows=13
nColumns=38
inDegrees=no

Units are S.I. units (second, meters, Newtons, ...)
If the header above contains a line with 'inDegrees', this indicates whether rotational values are in degrees (yes) or radians (no).

endheader
time	pelvis_tilt	pelvis_list	pelvis_rotation	pelvis_tx	pelvis_ty	pelvis_tz	hip_flexion_r	hip_adduction_r	hip_rotation_r	knee_angle_r	ankle_angle_r	subtalar_angle_r	mtp_angle_r	hip_flexion_l	hip_adduction_l	hip_rotation_l	knee_angle_l	ankle_angle_l	subtalar_angle_l	mtp_angle_l	lumbar_extension	lumbar_bending	lumbar_rotation	arm_flex_r	arm_add_r	arm_rot_r	elbow_flex_r	pro_sup_r	wrist_flex_r	wrist_dev_r	arm_flex_l	arm_add_l	arm_rot_l	elbow_flex_l	pro_sup_l	wrist_flex_l	wrist_dev_l
71.19	0.171448	1.4471	1.28939	0.761984	0.125529	0.984694	0.274239	-0.042996	-0.0400446	0.463675	0.202506	0	0	0.149479	-0.0755578	-0.283507	0.277009	0.170217	0	0	-0.0633926	0.0341707	0.132062	0.0753607	-0.21834	-0.000390312	0.298312	1.5708	0	0	0.142032	-0.232374	0.309405	0.303666	1.5708	0	0
71.2	0.142539	1.44736	1.31784	0.762359	0.125322	0.982977	0.282521	-0.0493911	-0.0489213	0.478755	0.212528	0	0	0.158227	-0.0742506	-0.2829	0.294944	0.180623	0	0	-0.0701539	0.0275417	0.131318	0.0791891	-0.216123	0.000299485	0.298726	1.5708	0	0	0.142509	-0.236891	0.308513	0.309872	1.5708	0	0
71.21	0.12108	1.44175	1.33348	0.762647	0.124113	0.981322	0.303705	-0.0423214	-0.0147021	0.504789	0.216367	0	0	0.174518	-0.0758605	-0.283642	0.315039	0.189527	0	0	-0.0735111	0.0245841	0.135923	0.0849222	-0.216889	0.00492769	0.298155	1.5708	0	0	0.144259	-0.237899	0.307371	0.314402	1.5708	0	0
71.22	0.0955502	1.43842	1.35637	0.763007	0.123259	0.979456	0.319813	-0.0417759	-0.00206418	0.526529	0.223325	0	0	0.188477	-0.0762451	-0.283429	0.335438	0.199678	0	0	-0.0786101	0.0194404	0.137493	0.0903572	-0.215756	0.00843327	0.297317	1.5708	0	0	0.14593	-0.241202	0.306928	0.32001	1.5708	0	0
71.23	0.0701201	1.43498	1.37928	0.763364	0.122329	0.977474	0.336163	-0.041159	0.0105999	0.548695	0.230538	0	0	0.202766	-0.0767288	-0.283726	0.356322	0.209945	0	0	-0.0841499	0.0140842	0.13897	0.0958794	-0.214711	0.0137635	0.29682	1.5708	0	0	0.147619	-0.245296	0.309081	0.326998	1.57072	0	0
71.24	0.0490113	1.4314	1.39827	0.763689	0.12139	0.97537	0.352167	-0.0400013	0.0225426	0.570537	0.237923	0	0	0.217388	-0.0777451	-0.283663	0.377843	0.220494	0	0	-0.0899314	0.0092981	0.140101	0.10182	-0.213488	0.0161959	0.295837	1.5708	0	0	0.149852	-0.248531	0.306788	0.332298	1.5708	0	0
71.25	0.0328761	1.42773	1.41229	0.764019	0.120433	0.973153	0.36782	-0.0380685	0.0339935	0.591903	0.244818	0	0	0.232139	-0.07938	-0.283424	0.399663	0.231195	0	0	-0.0959712	0.00515709	0.141555	0.107387	-0.21261	0.0188033	0.295545	1.5708	0	0	0.152247	-0.251808	0.306187	0.337977	1.57036	0	0
71.26	0.0204199	1.4237	1.42239	0.764379	0.119452	0.970801	0.383727	-0.0354096	0.0454154	0.613162	0.251923	0	0	0.247335	-0.0816092	-0.283397	0.421825	0.242113	0	0	-0.101546	0.00160396	0.143344	0.112501	-0.212005	0.0213601	0.295817	1.5708	0	0	0.154411	-0.254996	0.305819	0.344015	1.56796	0	0
71.27	0.0111174	1.4199	1.42901	0.764777	0.118396	0.968371	0.399398	-0.0321405	0.0565748	0.634254	0.258954	0	0	0.262261	-0.0842711	-0.283408	0.444118	0.253159	0	0	-0.107798	-0.00162096	0.145614	0.117753	-0.21157	0.0240379	0.296485	1.5708	0	0	0.157105	-0.257989	0.305758	0.349986	1.56446	0	0
71.28	0.00345508	1.41623	1.43346	0.765233	0.117248	0.965864	0.415053	-0.0283339	0.0676159	0.655285	0.265583	0	0	0.277022	-0.0872598	-0.283461	0.466643	0.264348	0	0	-0.11451	-0.00485817	0.148557	0.122927	-0.211101	0.0265133	0.297804	1.56967	0	0	0.160453	-0.260863	0.306176	0.355639	1.56023	0	0
71.29	-0.00280303	1.41237	1.43763	0.765605	0.116081	0.963269	0.430588	-0.0247973	0.0765523	0.675891	0.272016	0	0	0.292222	-0.0899469	-0.281315	0.489139	0.275273	0	0	-0.121003	-0.00795363	0.150494	0.127733	-0.210497	0.0295832	0.299365	1.56768	0	0	0.164152	-0.263663	0.306835	0.360755	1.55562	0	0
71.3	-0.00699312	1.4088	1.4413	0.765865	0.114966	0.960639	0.445006	-0.0215797	0.0838608	0.695659	0.278692	0	0	0.307205	-0.0922816	-0.277234	0.511417	0.286222	0	0	-0.127806	-0.010724	0.151027	0.132147	-0.209606	0.0323892	0.301105	1.56536	0	0	0.168027	-0.266368	0.307814	0.3658	1.55091	0	0
71.31	-0.0100355	1.4058	1.44475	0.766049	0.11389	0.958047	0.458053	-0.0185667	0.090544	0.714454	0.285744	0	0	0.321497	-0.094299	-0.27226	0.533271	0.296716	0	0	-0.135386	-0.0133309	0.150789	0.136516	-0.208494	0.0337635	0.303096	1.56187	0	0	0.172367	-0.268792	0.308731	0.3704	1.54609	0	0
